<?xml version="1.0" ?><svg height="24" id="svg958" version="1.1" viewBox="0 0 6.3499999 6.3500002" width="24" xmlns="http://www.w3.org/2000/svg" xmlns:cc="http://creativecommons.org/ns#" xmlns:dc="http://purl.org/dc/elements/1.1/" xmlns:inkscape="http://www.inkscape.org/namespaces/inkscape" xmlns:rdf="http://www.w3.org/1999/02/22-rdf-syntax-ns#" xmlns:sodipodi="http://sodipodi.sourceforge.net/DTD/sodipodi-0.dtd" xmlns:svg="http://www.w3.org/2000/svg"><defs id="defs952"/><g id="layer1"><path d="m 2.1172452,0.52916616 c -0.07042,1.3e-5 -0.137931,0.0281 -0.187585,0.07804 L 0.61811223,1.9188812 c -0.05669,0.05036 -0.08906,0.122624 -0.08888,0.198457 v 3.4399171 c 5.82e-4,0.1453279 0.118236,0.2629947 0.26355,0.2635768 1.14652797,0 2.29305597,0 3.43958407,0 0.07002,2.59e-4 0.137287,-0.02724 0.1870678,-0.07649 l 5.292e-4,5.292e-4 1.3244679,-1.324596 c 0.04918,-0.05 0.0765,-0.1174729 0.07596,-0.1876028 V 0.80773116 c 0.008,-0.151143 -0.1122251,-0.278166 -0.263563,-0.278563 z m 0.109554,0.52973504 h 2.6913089 l -0.793233,0.792793 c -0.8971029,0 -1.7942059,0 -2.6913089,0 z m 3.064413,0.37469 v 2.69002 l -0.7932341,0.794344 v -2.691053 z m -4.2323,0.947321 h 2.9099 v 2.9107001 h -2.9099 z" id="path3505" style="color:#000000;font-style:normal;font-variant:normal;font-weight:normal;font-stretch:normal;font-size:medium;line-height:normal;font-family:sans-serif;font-variant-ligatures:normal;font-variant-position:normal;font-variant-caps:normal;font-variant-numeric:normal;font-variant-alternates:normal;font-variant-east-asian:normal;font-feature-settings:normal;font-variation-settings:normal;text-indent:0;text-align:start;text-decoration:none;text-decoration-line:none;text-decoration-style:solid;text-decoration-color:#000000;letter-spacing:normal;word-spacing:normal;text-transform:none;writing-mode:lr-tb;direction:ltr;text-orientation:mixed;dominant-baseline:auto;baseline-shift:baseline;text-anchor:start;white-space:normal;shape-padding:0;shape-margin:0;inline-size:0;clip-rule:nonzero;display:inline;overflow:visible;visibility:visible;isolation:auto;mix-blend-mode:normal;color-interpolation:sRGB;color-interpolation-filters:linearRGB;solid-color:#000000;solid-opacity:1;vector-effect:none;fill:#000000;fill-opacity:1;fill-rule:nonzero;stroke:none;stroke-width:0.529193;stroke-linecap:round;stroke-linejoin:round;stroke-miterlimit:4;stroke-dasharray:none;stroke-dashoffset:0;stroke-opacity:1;color-rendering:auto;image-rendering:auto;shape-rendering:auto;text-rendering:auto;enable-background:accumulate;stop-color:#000000"/></g></svg>