<?xml version="1.0" encoding="UTF-8" standalone="no"?>
<!DOCTYPE svg PUBLIC "-//W3C//DTD SVG 1.1//EN" "http://www.w3.org/Graphics/SVG/1.1/DTD/svg11.dtd">
<svg width="100%" height="100%" viewBox="0 0 1000 1000" version="1.1" xmlns="http://www.w3.org/2000/svg" xmlns:xlink="http://www.w3.org/1999/xlink" xml:space="preserve" xmlns:serif="http://www.serif.com/" style="fill-rule:evenodd;clip-rule:evenodd;stroke-linejoin:round;stroke-miterlimit:2;">
    <g transform="matrix(1.53068,0,0,1.53068,-522.179,-453.522)">
        <g transform="matrix(745.657,0,0,745.657,747.699,816.273)">
        </g>
        <text x="333px" y="816.273px" style="font-family:'ArialMT', 'Arial';font-size:745.657px;">a</text>
    </g>
    <g transform="matrix(6.62564,0,0,6.62564,680.754,92.9537)">
        <path d="M3.28,64.8C1.47,64.8 0,63.33 0,61.52C0,59.71 1.47,58.24 3.28,58.24L18.52,58.24L18.52,21.51C18.05,16.98 16.66,13.62 14.54,11.25C12.24,8.67 8.97,7.16 5.01,6.51C3.23,6.22 2.02,4.54 2.31,2.75C2.6,0.97 4.28,-0.24 6.07,0.05C11.48,0.94 16.05,3.12 19.41,6.89C20.27,7.85 21.04,8.91 21.72,10.06C22.58,8.57 23.6,7.26 24.77,6.1C28.28,2.62 32.98,0.72 38.59,0.02C40.39,-0.2 42.02,1.08 42.24,2.88C42.46,4.68 41.18,6.31 39.38,6.53C35.18,7.05 31.77,8.37 29.38,10.74C27.01,13.09 25.51,16.59 25.08,21.52L25.08,58.23L40.56,58.23C42.37,58.23 43.84,59.7 43.84,61.51C43.84,63.32 42.37,64.79 40.56,64.79L25.08,64.79L25.08,101.35C25.51,106.28 27.01,109.79 29.38,112.13C31.77,114.49 35.18,115.82 39.38,116.34C41.18,116.56 42.46,118.2 42.24,119.99C42.02,121.79 40.39,123.07 38.59,122.85C32.98,122.15 28.28,120.25 24.77,116.77C23.6,115.61 22.58,114.3 21.72,112.81C21.04,113.97 20.27,115.02 19.41,115.98C16.04,119.75 11.47,121.93 6.07,122.82C4.29,123.11 2.61,121.9 2.31,120.12C2.02,118.34 3.23,116.66 5.01,116.36C8.97,115.71 12.24,114.2 14.54,111.62C16.66,109.25 18.05,105.88 18.52,101.36L18.52,64.8L3.28,64.8Z" style="fill-rule:nonzero;"/>
    </g>
</svg>
