<?xml version="1.0" encoding="UTF-8" standalone="no"?>
<!DOCTYPE svg PUBLIC "-//W3C//DTD SVG 1.1//EN" "http://www.w3.org/Graphics/SVG/1.1/DTD/svg11.dtd">
<svg width="100%" height="100%" viewBox="0 0 1000 1000" version="1.1" xmlns="http://www.w3.org/2000/svg" xmlns:xlink="http://www.w3.org/1999/xlink" xml:space="preserve" xmlns:serif="http://www.serif.com/" style="fill-rule:evenodd;clip-rule:evenodd;stroke-linecap:round;stroke-linejoin:round;stroke-miterlimit:1.5;">
    <rect x="0" y="0" width="333" height="333" style="fill:none;stroke:black;stroke-width:10px;"/>
    <g transform="matrix(1,0,0,1,333,1.42109e-14)">
        <rect x="0" y="0" width="333" height="333" style="fill:none;stroke:black;stroke-width:10px;"/>
    </g>
    <g transform="matrix(1,0,0,1,0,334)">
        <rect x="0" y="0" width="333" height="333" style="fill:none;stroke:black;stroke-width:10px;"/>
    </g>
    <path d="M1000,0L1000,1000L0,1000L0,0L1000,0ZM990,10L10,10L10,990L990,990L990,10Z"/>
    <g transform="matrix(1,0,0,1,334,334)">
        <rect x="0" y="0" width="333" height="333" style="fill:none;stroke:black;stroke-width:10px;"/>
    </g>
    <g transform="matrix(1,0,0,1,666,334)">
        <rect x="0" y="0" width="333" height="333" style="fill:none;stroke:black;stroke-width:10px;"/>
    </g>
    <g transform="matrix(1,0,0,1,0,667)">
        <rect x="0" y="0" width="333" height="333" style="fill:none;stroke:black;stroke-width:10px;"/>
    </g>
    <g transform="matrix(1,0,0,1,334,667)">
        <rect x="0" y="0" width="333" height="333" style="fill:none;stroke:black;stroke-width:10px;"/>
    </g>
    <g transform="matrix(1,0,0,1,667,667)">
        <rect x="0" y="0" width="333" height="333" style="fill:none;stroke:black;stroke-width:10px;"/>
    </g>
    <g transform="matrix(1,0,0,1,666,-1.42109e-14)">
        <rect x="0" y="0" width="333" height="333" style="fill:none;stroke:black;stroke-width:10px;"/>
    </g>
</svg>
