<svg xmlns="http://www.w3.org/2000/svg" shape-rendering="geometricPrecision" text-rendering="geometricPrecision" image-rendering="optimizeQuality" fill-rule="evenodd" clip-rule="evenodd" viewBox="0 0 512 512"><path d="M227.408 90.699l-39.646 13.868c-20.177 7.793-36.668-5.311-22.629-19.536L240.632 9.53c12.708-12.706 18.028-12.706 30.736 0l75.5 75.501c14.038 14.225-2.454 27.329-22.629 19.536l-39.646-13.868v136.708h136.708l-13.869-39.647c-7.792-20.175 5.312-36.667 19.536-22.628l75.502 75.499c12.706 12.708 12.706 18.028 0 30.736l-75.502 75.5c-14.224 14.038-27.328-2.453-19.536-22.629l13.869-39.646H284.593v136.709l39.646-13.869c20.175-7.792 36.667 5.312 22.629 19.537l-75.5 75.501c-12.708 12.706-18.028 12.706-30.736 0l-75.499-75.501c-14.039-14.225 2.452-27.329 22.629-19.537l39.646 13.869V284.592H90.699l13.868 39.646c7.793 20.176-5.311 36.667-19.536 22.629l-75.501-75.5c-12.706-12.708-12.706-18.028 0-30.736l75.501-75.499c14.225-14.039 27.329 2.453 19.536 22.628l-13.868 39.647h136.709V90.699z"/></svg>